# xmcd
#
# Track frame offsets:
#	150
#	2566
#	14743
#	28050
#	46344
#	57833
#	68874
#	90414
#	108392
#	122394
#	131336
#	143965
#	160498
#	170852
#	179202
#	193622
#
# Disc length: 2824 seconds
#
# Revision: 1
# Processed by: cddbd v1.5.2PL0 Copyright (c) Steve Scherf et al.
# Submitted via: audiograbber 1.83.01
#
DISCID=e10b0610
DTITLE=Schorsch H. and Dr.Will - Together
DYEAR=2010
DGENRE=Blues
TTITLE0=Candyman
TTITLE1=Alle Mitnander
TTITLE2=Little Red Rooster
TTITLE3=Boom Boom
TTITLE4=Blues stay away
TTITLE5=Neila Frua am Moing
TTITLE6=Born on the Bayou/Suzie Q
TTITLE7=Dead Flowers
TTITLE8=Bo Diddley Blues - Jedn Dog
TTITLE9=Union Square
TTITLE10=Little Sister
TTITLE11=The Moon is full again
TTITLE12=Schleich Di Boandlkramer
TTITLE13=Iko Iko
TTITLE14=You got to Move
TTITLE15=I Don´t wanna grow up
EXTD=
EXTT0=
EXTT1=
EXTT2=
EXTT3=
EXTT4=
EXTT5=
EXTT6=
EXTT7=
EXTT8=
EXTT9=
EXTT10=
EXTT11=
EXTT12=
EXTT13=
EXTT14=
EXTT15=
PLAYORDER=
